<svg width="43" height="44" viewBox="0 0 43 44" fill="none" xmlns="http://www.w3.org/2000/svg">
<g clip-path="url(#clip0_1_5982)">
<path d="M6.07846 4.98975C5.8982 5.06382 5.72152 5.14336 5.54858 5.22868C5.72152 5.14344 5.8982 5.06374 6.07846 4.98975Z" fill="black"/>
<path d="M9.25623 17.4156C8.94263 17.5907 8.59676 17.7219 8.22534 17.7991C8.59684 17.7219 8.94272 17.5908 9.25623 17.4156Z" fill="black"/>
<path d="M22.0452 41.6686C22.2299 41.6007 22.4129 41.5261 22.5939 41.4447C22.4129 41.526 22.2299 41.6007 22.0452 41.6686Z" fill="black"/>
<path d="M24.6387 38.4174C24.6174 38.3859 24.5953 38.3549 24.5722 38.3241L19.6992 31.838C19.0455 30.9679 18.1107 30.3854 17.0493 30.1813C16.9785 30.1677 16.9072 30.1558 16.8353 30.1456C15.8938 30.0115 14.9559 30.1852 14.1371 30.6354C13.9563 30.7348 13.7811 30.8472 13.6132 30.9733L12.2621 31.988C9.2894 28.3489 7.31738 24.0236 6.51985 19.394L8.19622 19.0405C9.33222 18.8009 10.3069 18.1335 10.9409 17.1609C11.2528 16.6822 11.4638 16.158 11.5691 15.6134C11.5842 15.5356 11.597 15.4574 11.6078 15.3788C11.6364 15.1694 11.6495 14.9576 11.6469 14.7447C11.6435 14.461 11.6121 14.1754 11.5522 13.8915L9.87768 5.95407C9.86985 5.91684 9.86102 5.88003 9.85144 5.84347C9.85011 5.83847 9.84853 5.83356 9.84711 5.82856C9.83853 5.79683 9.82945 5.76527 9.81954 5.73404C9.8192 5.73295 9.81879 5.73187 9.81845 5.73079C9.66276 5.24434 9.34746 4.82934 8.91354 4.54668C8.45163 4.24578 7.90658 4.12844 7.36587 4.21031C7.35987 4.21122 7.35395 4.21181 7.34796 4.21272C7.32671 4.21614 7.30556 4.22047 7.28431 4.22446C7.26832 4.22746 7.25241 4.22988 7.23641 4.23329C7.13629 4.25436 7.03699 4.27768 6.93803 4.302C6.91878 4.30675 6.89954 4.31149 6.8803 4.31641C6.67537 4.36821 6.47253 4.42659 6.27227 4.49213C6.26736 4.49372 6.26244 4.49538 6.25753 4.49696C6.12791 4.53952 5.99979 4.58541 5.87284 4.63346C5.85601 4.63979 5.83952 4.64695 5.82277 4.65345C5.71198 4.69626 5.60177 4.74065 5.49273 4.78778C5.47524 4.79536 5.45799 4.80352 5.44058 4.81119C5.33179 4.85899 5.22375 4.90846 5.11687 4.96059C5.10263 4.96751 5.08846 4.97484 5.07422 4.98192C4.96351 5.03663 4.85363 5.09326 4.74518 5.15248C4.74134 5.15456 4.73734 5.15647 4.73343 5.15856C4.73193 5.15939 4.7306 5.16047 4.7291 5.1613C3.45007 5.86154 2.35048 6.86392 1.52262 8.11107C0.192286 10.1153 -0.288702 12.5197 0.168294 14.8812L0.32257 15.6786C0.665443 17.4505 0.908436 18.9098 1.0872 20.2711C1.40175 22.6665 1.9987 24.9874 2.86146 27.1689C3.55528 28.9233 4.43029 30.6096 5.46224 32.1807C6.12633 33.1919 6.86739 34.1732 7.66476 35.0973C8.79267 36.4044 9.68575 37.4852 10.4752 38.4987L11.4582 39.7607C12.9357 41.6575 15.0623 42.8771 17.446 43.1946C17.8537 43.2489 18.261 43.2758 18.6657 43.2758C19.7496 43.2758 20.8148 43.0812 21.8209 42.7061C21.8256 42.7044 21.8304 42.7033 21.8351 42.7015C21.8492 42.6963 21.8631 42.6903 21.8773 42.6849C21.9412 42.6606 22.0048 42.6355 22.068 42.6098C22.0931 42.5995 22.1185 42.5895 22.1435 42.579C22.2294 42.5431 22.315 42.5063 22.3998 42.4681C22.4195 42.4592 22.4393 42.4505 22.4589 42.4414C22.531 42.4083 22.6023 42.3736 22.6733 42.3387C22.7106 42.3203 22.7477 42.3018 22.7848 42.283C22.8431 42.2532 22.9011 42.2227 22.9587 42.1918C23.0102 42.1641 23.0612 42.1358 23.1121 42.1071C23.1577 42.0815 23.2033 42.0557 23.2485 42.0293C23.314 41.991 23.3787 41.9514 23.4433 41.9114C23.4756 41.8914 23.5082 41.8718 23.5403 41.8514C23.6232 41.7987 23.705 41.7443 23.7862 41.6888C23.8015 41.6783 23.8172 41.6683 23.8325 41.6578C23.9288 41.591 24.0241 41.5229 24.1177 41.4526C24.1197 41.4511 24.125 41.4471 24.1277 41.4451C24.128 41.4449 24.1284 41.4447 24.1287 41.4445C24.4665 41.1908 24.7117 40.8588 24.8581 40.4926C24.8847 40.426 24.9081 40.3583 24.9281 40.2897C25.1084 39.6723 25.021 38.9841 24.6387 38.4174ZM6.85439 6.05517C6.85589 6.05467 6.85739 6.05425 6.85889 6.05376C6.9137 6.03627 6.96893 6.01944 7.02441 6.0032C7.04007 5.99862 7.05582 5.99438 7.07148 5.98988C7.11529 5.97739 7.15919 5.96498 7.20334 5.95323C7.23392 5.94516 7.26457 5.93758 7.29523 5.92983C7.32638 5.922 7.35745 5.91384 7.38886 5.90635C7.45242 5.89119 7.51623 5.87678 7.58029 5.86321C7.59953 5.85913 7.61869 5.85613 7.63777 5.85413C7.64093 5.85379 7.64418 5.8538 7.64735 5.85355C7.66359 5.85213 7.67983 5.85105 7.69599 5.85105C7.69658 5.85105 7.69724 5.85105 7.69783 5.85105C7.76147 5.8513 7.82345 5.86237 7.88176 5.88278C7.88359 5.88344 7.88534 5.88403 7.88717 5.88461C7.91525 5.89477 7.9424 5.9071 7.96848 5.9215C7.97039 5.92259 7.97231 5.92375 7.97431 5.92492C7.99771 5.93824 8.01971 5.95373 8.04103 5.97014C8.04478 5.97305 8.04878 5.97572 8.05244 5.97872C8.07469 5.99687 8.09585 6.01644 8.11517 6.03785C8.11634 6.03918 8.11759 6.04043 8.11875 6.04168C8.13833 6.06375 8.15607 6.08757 8.17207 6.1128C8.17373 6.11547 8.1754 6.11813 8.17706 6.12088C8.19239 6.14587 8.20597 6.17218 8.2173 6.19983C8.21847 6.20266 8.21938 6.20566 8.22055 6.20849C8.23179 6.23706 8.24121 6.26671 8.24779 6.29777L9.92233 14.2352C9.93175 14.28 9.93999 14.3247 9.94707 14.3695C9.94824 14.3765 9.94891 14.3835 9.94991 14.3906C9.95565 14.4289 9.96107 14.4672 9.96515 14.5055C9.96532 14.5067 9.96532 14.5081 9.96548 14.5094C9.97231 14.5743 9.97648 14.6389 9.97856 14.7033C9.97865 14.7065 9.97889 14.7098 9.97898 14.7131C9.98081 14.7726 9.97981 14.8319 9.97764 14.8911C9.97656 14.9201 9.97431 14.9489 9.97223 14.9778C9.97023 15.0063 9.96798 15.035 9.96507 15.0635C9.96132 15.0994 9.95707 15.1351 9.9519 15.1706C9.94941 15.1882 9.94632 15.2057 9.94341 15.2234C9.911 15.4187 9.85777 15.6086 9.78438 15.7898C9.78363 15.7916 9.78288 15.7935 9.78213 15.7953C9.7065 15.9807 9.6102 16.1567 9.49599 16.3204C9.48791 16.332 9.47966 16.3434 9.47142 16.3548C9.39536 16.4604 9.31131 16.5601 9.22051 16.6538C9.19877 16.6761 9.17694 16.6983 9.15453 16.7197C9.13387 16.7396 9.11305 16.7593 9.09173 16.7786C9.04591 16.8197 8.99951 16.8601 8.95111 16.8979C8.94645 16.9016 8.9417 16.9052 8.93703 16.9089C8.89313 16.9429 8.8479 16.9754 8.80175 17.0067C8.79425 17.0118 8.787 17.017 8.77951 17.022C8.72769 17.0564 8.67463 17.0894 8.62015 17.1203C8.61149 17.1252 8.60282 17.1301 8.59416 17.1349C8.57583 17.1449 8.55717 17.1544 8.5386 17.1642C6.79108 11.9954 6.19139 7.83091 6.02195 6.37839C6.29035 6.25505 6.568 6.1467 6.85439 6.05517ZM12.7727 38.7374L11.7896 37.4753C10.9826 36.4394 10.0728 35.338 8.9262 34.0094C8.17606 33.1402 7.47924 32.2174 6.85481 31.2666C5.88508 29.7901 5.06281 28.2055 4.41072 26.5566C3.59819 24.502 3.03573 22.3143 2.739 20.0542C2.55574 18.6587 2.30767 17.1679 1.95821 15.3621L1.80394 14.5648C1.26539 11.7815 2.38214 9.02826 4.46295 7.34638C4.72668 9.27152 5.3866 13.0236 6.92911 17.6054L5.40201 17.9274C4.97267 18.018 4.6872 18.426 4.74934 18.8602C5.53546 24.3531 7.87043 29.4749 11.5019 33.6723C11.7882 34.0033 12.2822 34.0561 12.6322 33.7933L13.809 32.9097C16.2689 37.0291 18.6732 39.9726 20.0013 41.475C17.3532 41.9526 14.5238 40.9854 12.7727 38.7374ZM23.1237 40.116C23.025 40.1901 22.9251 40.2611 22.8239 40.3294C22.8207 40.3316 22.8175 40.334 22.8142 40.3362C22.4732 40.5659 22.1177 40.7619 21.7529 40.928C20.7221 39.8065 17.9658 36.6363 15.19 31.9741C15.193 31.973 15.1961 31.972 15.1991 31.9706C15.2453 31.9515 15.2919 31.9339 15.339 31.9174C15.3531 31.9125 15.3673 31.9078 15.3815 31.9031C15.4221 31.8896 15.463 31.8771 15.5043 31.8656C15.5156 31.8625 15.5268 31.859 15.5382 31.856C15.5903 31.8421 15.6428 31.8299 15.6957 31.8193C15.7044 31.8176 15.7132 31.8162 15.7219 31.8146C15.7667 31.8061 15.8116 31.7988 15.8569 31.7927C15.871 31.7907 15.8851 31.7889 15.8993 31.7872C15.9463 31.7815 15.9936 31.777 16.0411 31.7738C16.048 31.7734 16.0548 31.7726 16.0617 31.7722C16.1159 31.769 16.1704 31.7678 16.2251 31.7678C16.2379 31.7678 16.2507 31.7683 16.2636 31.7686C16.3064 31.7693 16.3493 31.7711 16.3922 31.7738C16.4072 31.7748 16.4221 31.7757 16.4371 31.7769C16.4916 31.7813 16.5462 31.7868 16.6008 31.7946C16.6452 31.8009 16.6891 31.8082 16.7328 31.8166C16.7737 31.8245 16.8144 31.8333 16.8546 31.843C17.4588 31.9881 17.9891 32.3354 18.367 32.8384L23.24 39.3244C23.4266 39.5726 23.3762 39.9263 23.1237 40.116Z" fill="#E12E0D"/>
<path d="M37.6987 0.275879H19.3742C16.4509 0.275879 14.0728 2.59911 14.0728 5.45468V22.5958C14.0728 23.6845 14.7076 24.6305 15.7296 25.0647C16.092 25.2186 16.4692 25.2941 16.8417 25.2941C17.5199 25.2941 18.1821 25.0443 18.7082 24.5651L20.476 22.9553C22.0789 21.4955 24.1686 20.6915 26.3601 20.6915H33.5829C34.0515 20.6915 34.4314 20.3205 34.4314 19.8627C34.4314 19.4051 34.0515 19.0339 33.5829 19.0339H26.3601C23.7377 19.0339 21.2371 19.9959 19.319 21.7428L17.5513 23.3527C17.2332 23.6423 16.8052 23.714 16.4064 23.5447C16.0077 23.3752 15.7696 23.0205 15.7696 22.5957V5.45468C15.7696 3.51311 17.3866 1.93349 19.3742 1.93349H37.6987C39.6863 1.93349 41.3033 3.51311 41.3033 5.45468V15.5127C41.3033 16.1134 41.1461 16.7059 40.8485 17.2263C40.6339 17.6018 40.3536 17.9329 40.0156 18.2103C39.6568 18.5047 39.6103 19.0275 39.9116 19.378C40.2129 19.7285 40.748 19.774 41.107 19.4796C41.6031 19.0725 42.0146 18.5863 42.3299 18.0346C42.7683 17.2677 43 16.3957 43 15.5127V5.45468C43 2.59911 40.6219 0.275879 37.6987 0.275879Z" fill="#E12E0D"/>
<path d="M32.3172 8.69245C32.5254 8.2289 32.6418 7.71728 32.6418 7.17937C32.6418 5.09723 30.9096 3.4032 28.7804 3.4032C26.6512 3.4032 24.9191 5.09723 24.9191 7.17937C24.9191 7.64892 25.0079 8.09841 25.1688 8.51356C23.2523 9.24828 21.8909 11.0735 21.8909 13.2051V15.968C21.8909 16.6093 22.3304 17.1833 22.9599 17.3639L23.7111 17.5793C25.288 18.0316 26.9104 18.2577 28.5328 18.2577C30.1462 18.2577 31.7595 18.0341 33.3284 17.5869L34.1106 17.3638C34.7414 17.184 35.1818 16.6096 35.1818 15.9672V13.205C35.1818 11.2301 34.0132 9.5179 32.3172 8.69245ZM28.7804 5.04669C29.983 5.04669 30.9613 6.00337 30.9613 7.17945C30.9613 7.55294 30.8623 7.90415 30.6892 8.20976C30.317 8.8665 29.6011 9.31213 28.7805 9.31213C27.9443 9.31213 27.2168 8.84924 26.8511 8.17187C26.6909 7.87522 26.5996 7.53765 26.5996 7.17945C26.5996 6.00337 27.5779 5.04669 28.7804 5.04669ZM33.5013 15.8256L32.858 16.009C30.02 16.8181 27.0207 16.8158 24.184 16.0023L23.5715 15.8266V13.2051C23.5715 11.6396 24.661 10.3189 26.1372 9.92844C26.8286 10.5646 27.7585 10.9556 28.7804 10.9556C29.739 10.9556 30.6165 10.6115 31.2923 10.0439C32.5838 10.5388 33.5013 11.7687 33.5013 13.2051V15.8256Z" fill="#E12E0D"/>
<path d="M38.2943 19.6687C38.2841 19.6186 38.2685 19.5693 38.2489 19.5224C38.2294 19.4747 38.2059 19.4293 38.177 19.3872C38.1488 19.3441 38.116 19.3042 38.08 19.2683C38.0441 19.2323 38.0042 19.1995 37.9612 19.1713C37.919 19.1432 37.8736 19.1189 37.826 19.0994C37.779 19.0798 37.7298 19.065 37.6798 19.0549C37.5789 19.0344 37.4757 19.0344 37.3748 19.0549C37.3248 19.065 37.2756 19.0798 37.2279 19.0994C37.181 19.1189 37.1356 19.1432 37.0934 19.1713C37.0504 19.1995 37.0105 19.2323 36.9746 19.2683C36.9386 19.3043 36.9058 19.3442 36.8776 19.3872C36.8495 19.4293 36.8252 19.4747 36.8057 19.5224C36.7861 19.5693 36.7705 19.6186 36.7611 19.6687C36.751 19.7187 36.7455 19.7703 36.7455 19.8212C36.7455 19.8719 36.751 19.9236 36.7611 19.9745C36.7713 20.0237 36.7861 20.073 36.8057 20.1207C36.8252 20.1676 36.8494 20.213 36.8776 20.2552C36.9058 20.2982 36.9386 20.3381 36.9746 20.374C37.0105 20.41 37.0504 20.4429 37.0934 20.4718C37.1356 20.5 37.181 20.5242 37.2279 20.5437C37.2756 20.5633 37.3248 20.5782 37.3748 20.5883C37.4249 20.5985 37.4765 20.6032 37.5273 20.6032C37.5781 20.6032 37.6297 20.5984 37.6798 20.5883C37.7298 20.5782 37.779 20.5633 37.826 20.5437C37.8736 20.5242 37.919 20.5 37.9612 20.4718C38.0042 20.4429 38.0441 20.41 38.08 20.374C38.116 20.3381 38.1488 20.2982 38.177 20.2552C38.2059 20.213 38.2294 20.1676 38.2489 20.1207C38.2685 20.073 38.2841 20.0237 38.2943 19.9745C38.3044 19.9236 38.3091 19.8719 38.3091 19.8212C38.3091 19.7703 38.3044 19.7186 38.2943 19.6687Z" fill="#E12E0D"/>
</g>
<defs>
<clipPath id="clip0_1_5982">
<rect width="43" height="43" fill="white" transform="translate(0 0.275879)"/>
</clipPath>
</defs>
</svg>
